<mxfile host="app.diagrams.net" agent="Mozilla/5.0 (Macintosh; Intel Mac OS X 10_15_7) AppleWebKit/537.36 (KHTML, like Gecko) Chrome/129.0.0.0 Safari/537.36" version="24.7.16">
  <diagram name="Page-1" id="52a04d89-c75d-2922-d76d-85b35f80e030">
    <mxGraphModel dx="962" dy="763" grid="1" gridSize="10" guides="1" tooltips="1" connect="1" arrows="1" fold="1" page="1" pageScale="1" pageWidth="1100" pageHeight="850" background="none" math="0" shadow="0">
      <root>
        <mxCell id="0" />
        <mxCell id="1" parent="0" />
        <mxCell id="6ljBKqhG9MOsJNuzWGUm-1" value="&lt;font style=&quot;font-size: 20px;&quot;&gt;Extract&amp;nbsp; Model&lt;/font&gt;" style="rounded=0;whiteSpace=wrap;html=1;fillColor=#d5e8d4;gradientColor=none;strokeColor=#82b366;" parent="1" vertex="1">
          <mxGeometry x="184" y="388" width="121" height="54" as="geometry" />
        </mxCell>
        <mxCell id="6ljBKqhG9MOsJNuzWGUm-4" value="" style="endArrow=classic;html=1;rounded=0;exitX=0.5;exitY=0;exitDx=0;exitDy=0;entryX=0;entryY=0.5;entryDx=0;entryDy=0;shape=flexArrow;" parent="1" source="6ljBKqhG9MOsJNuzWGUm-1" target="6ljBKqhG9MOsJNuzWGUm-66" edge="1">
          <mxGeometry width="50" height="50" relative="1" as="geometry">
            <mxPoint x="504" y="420" as="sourcePoint" />
            <mxPoint x="284" y="270" as="targetPoint" />
            <Array as="points">
              <mxPoint x="245" y="265" />
            </Array>
          </mxGeometry>
        </mxCell>
        <mxCell id="6ljBKqhG9MOsJNuzWGUm-129" value="&lt;font style=&quot;font-size: 20px;&quot;&gt;query_user&lt;/font&gt;" style="edgeLabel;html=1;align=center;verticalAlign=middle;resizable=0;points=[];fontSize=12;" parent="6ljBKqhG9MOsJNuzWGUm-4" vertex="1" connectable="0">
          <mxGeometry x="-0.1866" y="2" relative="1" as="geometry">
            <mxPoint as="offset" />
          </mxGeometry>
        </mxCell>
        <mxCell id="6ljBKqhG9MOsJNuzWGUm-8" value="&lt;font style=&quot;font-size: 20px;&quot;&gt;DataBase(New)&lt;/font&gt;" style="shape=cylinder3;whiteSpace=wrap;html=1;boundedLbl=1;backgroundOutline=1;size=15;fillColor=#dae8fc;strokeColor=#6c8ebf;" parent="1" vertex="1">
          <mxGeometry x="589" y="468" width="181" height="162" as="geometry" />
        </mxCell>
        <mxCell id="6ljBKqhG9MOsJNuzWGUm-9" value="" style="endArrow=classic;html=1;rounded=0;exitX=1;exitY=0.5;exitDx=0;exitDy=0;shape=flexArrow;entryX=0;entryY=0.5;entryDx=0;entryDy=0;" parent="1" source="6ljBKqhG9MOsJNuzWGUm-66" target="6ljBKqhG9MOsJNuzWGUm-67" edge="1">
          <mxGeometry width="50" height="50" relative="1" as="geometry">
            <mxPoint x="404.5" y="257.5" as="sourcePoint" />
            <mxPoint x="770" y="310" as="targetPoint" />
            <Array as="points" />
          </mxGeometry>
        </mxCell>
        <mxCell id="6ljBKqhG9MOsJNuzWGUm-42" value="&lt;font style=&quot;font-size: 20px;&quot;&gt;yes&lt;/font&gt;" style="edgeLabel;html=1;align=center;verticalAlign=middle;resizable=0;points=[];" parent="6ljBKqhG9MOsJNuzWGUm-9" vertex="1" connectable="0">
          <mxGeometry x="-0.1679" y="-3" relative="1" as="geometry">
            <mxPoint y="1" as="offset" />
          </mxGeometry>
        </mxCell>
        <mxCell id="6ljBKqhG9MOsJNuzWGUm-13" value="" style="endArrow=classic;html=1;rounded=0;entryX=0.5;entryY=0;entryDx=0;entryDy=0;shape=flexArrow;exitX=0.5;exitY=1;exitDx=0;exitDy=0;" parent="1" source="6ljBKqhG9MOsJNuzWGUm-67" target="6ljBKqhG9MOsJNuzWGUm-83" edge="1">
          <mxGeometry width="50" height="50" relative="1" as="geometry">
            <mxPoint x="650" y="460" as="sourcePoint" />
            <mxPoint x="413.2499999999998" y="472" as="targetPoint" />
            <Array as="points" />
          </mxGeometry>
        </mxCell>
        <mxCell id="6ljBKqhG9MOsJNuzWGUm-29" value="&lt;font style=&quot;font-size: 20px;&quot;&gt;yes&lt;/font&gt;" style="edgeLabel;html=1;align=center;verticalAlign=middle;resizable=0;points=[];" parent="6ljBKqhG9MOsJNuzWGUm-13" vertex="1" connectable="0">
          <mxGeometry x="-0.1707" y="-2" relative="1" as="geometry">
            <mxPoint y="1" as="offset" />
          </mxGeometry>
        </mxCell>
        <mxCell id="6ljBKqhG9MOsJNuzWGUm-14" value="&lt;font style=&quot;font-size: 20px;&quot;&gt;MathGPT&lt;/font&gt;" style="rounded=0;whiteSpace=wrap;html=1;fillColor=#d5e8d4;gradientColor=none;strokeColor=#82b366;" parent="1" vertex="1">
          <mxGeometry x="340.5" y="389" width="141" height="52" as="geometry" />
        </mxCell>
        <mxCell id="6ljBKqhG9MOsJNuzWGUm-19" value="" style="endArrow=classic;html=1;rounded=0;exitX=0.5;exitY=1;exitDx=0;exitDy=0;shape=flexArrow;" parent="1" source="6ljBKqhG9MOsJNuzWGUm-14" edge="1">
          <mxGeometry width="50" height="50" relative="1" as="geometry">
            <mxPoint x="636" y="268" as="sourcePoint" />
            <mxPoint x="410" y="520" as="targetPoint" />
            <Array as="points" />
          </mxGeometry>
        </mxCell>
        <mxCell id="6ljBKqhG9MOsJNuzWGUm-32" value="" style="endArrow=classic;html=1;rounded=0;shape=flexArrow;exitX=0.5;exitY=1;exitDx=0;exitDy=0;entryX=1;entryY=0.5;entryDx=0;entryDy=0;" parent="1" source="6ljBKqhG9MOsJNuzWGUm-67" target="6ljBKqhG9MOsJNuzWGUm-80" edge="1">
          <mxGeometry width="50" height="50" relative="1" as="geometry">
            <mxPoint x="833.5" y="319.9999999999998" as="sourcePoint" />
            <mxPoint x="719" y="748" as="targetPoint" />
            <Array as="points">
              <mxPoint x="835" y="750" />
            </Array>
          </mxGeometry>
        </mxCell>
        <mxCell id="6ljBKqhG9MOsJNuzWGUm-33" value="&lt;font style=&quot;font-size: 20px;&quot;&gt;no&lt;/font&gt;" style="edgeLabel;html=1;align=center;verticalAlign=middle;resizable=0;points=[];" parent="6ljBKqhG9MOsJNuzWGUm-32" vertex="1" connectable="0">
          <mxGeometry x="-0.2857" y="2" relative="1" as="geometry">
            <mxPoint as="offset" />
          </mxGeometry>
        </mxCell>
        <mxCell id="6ljBKqhG9MOsJNuzWGUm-40" value="" style="endArrow=classic;html=1;rounded=0;exitX=0.5;exitY=1;exitDx=0;exitDy=0;shape=flexArrow;entryX=0;entryY=0.5;entryDx=0;entryDy=0;" parent="1" source="6ljBKqhG9MOsJNuzWGUm-1" target="6ljBKqhG9MOsJNuzWGUm-68" edge="1">
          <mxGeometry width="50" height="50" relative="1" as="geometry">
            <mxPoint x="250" y="310" as="sourcePoint" />
            <mxPoint x="304" y="450" as="targetPoint" />
            <Array as="points">
              <mxPoint x="245" y="750" />
            </Array>
          </mxGeometry>
        </mxCell>
        <mxCell id="6ljBKqhG9MOsJNuzWGUm-130" value="&lt;font style=&quot;font-size: 20px;&quot;&gt;answer_user&lt;/font&gt;" style="edgeLabel;html=1;align=center;verticalAlign=middle;resizable=0;points=[];fontSize=12;" parent="6ljBKqhG9MOsJNuzWGUm-40" vertex="1" connectable="0">
          <mxGeometry x="-0.2112" y="2" relative="1" as="geometry">
            <mxPoint as="offset" />
          </mxGeometry>
        </mxCell>
        <mxCell id="6ljBKqhG9MOsJNuzWGUm-52" value="&lt;p style=&quot;line-height: normal; margin-top: 0pt; margin-bottom: 0pt; text-align: left; direction: ltr; unicode-bidi: embed; font-size: 20px;&quot;&gt;&lt;font style=&quot;font-size: 20px;&quot;&gt;&lt;span style=&quot;font-family: Arial; font-variant: normal; text-transform: none; font-style: normal;&quot;&gt;[(q_&lt;/span&gt;&lt;span style=&quot;font-family: Arial; font-variant: normal; color: black; font-weight: normal; font-style: normal;&quot;&gt;db1&lt;/span&gt;&lt;span style=&quot;font-family: Arial; font-variant: normal; text-transform: none; font-style: normal;&quot;&gt;,a_&lt;/span&gt;&lt;span style=&quot;font-family: Arial; font-variant: normal; color: black; font-weight: normal; font-style: normal;&quot;&gt;db1&lt;/span&gt;&lt;span style=&quot;font-family: Arial; font-variant: normal; text-transform: none; font-style: normal;&quot;&gt;)&lt;/span&gt;&lt;/font&gt;&lt;/p&gt;&lt;p style=&quot;line-height: normal; margin-top: 0pt; margin-bottom: 0pt; text-align: left; direction: ltr; unicode-bidi: embed; font-size: 20px;&quot;&gt;&lt;font style=&quot;font-size: 20px;&quot;&gt;&lt;span style=&quot;font-family: Arial; font-variant: normal; text-transform: none; font-style: normal;&quot;&gt;,...,&lt;/span&gt;&lt;/font&gt;&lt;/p&gt;&lt;p style=&quot;line-height: normal; margin-top: 0pt; margin-bottom: 0pt; text-align: left; direction: ltr; unicode-bidi: embed; font-size: 20px;&quot;&gt;&lt;font style=&quot;font-size: 20px;&quot;&gt;&lt;span style=&quot;font-family: Arial; font-variant: normal; text-transform: none; font-style: normal;&quot;&gt;&lt;font style=&quot;font-size: 20px;&quot;&gt;&lt;span style=&quot;font-variant-numeric: normal; font-variant-east-asian: normal; font-variant-alternates: normal; font-variant-position: normal;&quot;&gt;(q_&lt;/span&gt;&lt;span style=&quot;font-variant-numeric: normal; font-variant-east-asian: normal; font-variant-alternates: normal; font-variant-position: normal;&quot;&gt;dbk&lt;/span&gt;&lt;span style=&quot;font-variant-numeric: normal; font-variant-east-asian: normal; font-variant-alternates: normal; font-variant-position: normal;&quot;&gt;,a_&lt;/span&gt;&lt;span style=&quot;font-variant-numeric: normal; font-variant-east-asian: normal; font-variant-alternates: normal; font-variant-position: normal;&quot;&gt;dbk&lt;/span&gt;&lt;span style=&quot;font-variant-numeric: normal; font-variant-east-asian: normal; font-variant-alternates: normal; font-variant-position: normal;&quot;&gt;)]&lt;/span&gt;&lt;/font&gt;&lt;br&gt;&lt;/span&gt;&lt;/font&gt;&lt;/p&gt;" style="text;whiteSpace=wrap;html=1;" parent="1" vertex="1">
          <mxGeometry x="480" y="280" width="110" height="47" as="geometry" />
        </mxCell>
        <mxCell id="6ljBKqhG9MOsJNuzWGUm-59" value="&lt;font style=&quot;font-size: 18px;&quot;&gt;用户&lt;/font&gt;" style="shape=umlActor;verticalLabelPosition=bottom;verticalAlign=top;html=1;outlineConnect=0;fillColor=#dae8fc;strokeColor=#6c8ebf;" parent="1" vertex="1">
          <mxGeometry x="52" y="381" width="30" height="60" as="geometry" />
        </mxCell>
        <mxCell id="6ljBKqhG9MOsJNuzWGUm-60" value="" style="endArrow=classic;html=1;rounded=0;entryX=0;entryY=0.5;entryDx=0;entryDy=0;shape=flexArrow;" parent="1" target="6ljBKqhG9MOsJNuzWGUm-1" edge="1">
          <mxGeometry width="50" height="50" relative="1" as="geometry">
            <mxPoint x="82" y="415.61538461538476" as="sourcePoint" />
            <mxPoint x="184" y="413" as="targetPoint" />
          </mxGeometry>
        </mxCell>
        <mxCell id="6ljBKqhG9MOsJNuzWGUm-120" value="&lt;font style=&quot;font-size: 20px;&quot;&gt;Query&lt;/font&gt;" style="edgeLabel;html=1;align=center;verticalAlign=middle;resizable=0;points=[];" parent="6ljBKqhG9MOsJNuzWGUm-60" vertex="1" connectable="0">
          <mxGeometry x="-0.3157" relative="1" as="geometry">
            <mxPoint x="1" as="offset" />
          </mxGeometry>
        </mxCell>
        <mxCell id="6ljBKqhG9MOsJNuzWGUm-66" value="&lt;font style=&quot;font-size: 20px;&quot;&gt;Search&lt;/font&gt;" style="rounded=0;whiteSpace=wrap;html=1;rotation=0;fillColor=#fff2cc;gradientColor=none;strokeColor=#d6b656;" parent="1" vertex="1">
          <mxGeometry x="365.44" y="240.06" width="90.56" height="49.94" as="geometry" />
        </mxCell>
        <mxCell id="6ljBKqhG9MOsJNuzWGUm-67" value="&lt;font style=&quot;font-size: 20px;&quot;&gt;Append the Query &amp;amp; Update the center&lt;/font&gt;" style="rounded=0;whiteSpace=wrap;html=1;fillColor=#fff2cc;gradientColor=none;strokeColor=#d6b656;" parent="1" vertex="1">
          <mxGeometry x="738" y="213" width="191" height="107" as="geometry" />
        </mxCell>
        <mxCell id="6ljBKqhG9MOsJNuzWGUm-68" value="&lt;font style=&quot;font-size: 20px;&quot;&gt;Append the answer&lt;span style=&quot;background-color: initial;&quot;&gt;&amp;nbsp;&lt;/span&gt;&lt;/font&gt;&lt;div style=&quot;font-size: 20px;&quot;&gt;&lt;span style=&quot;background-color: initial;&quot;&gt;&lt;font style=&quot;font-size: 20px;&quot;&gt;&amp;amp; Update the center answer&lt;/font&gt;&lt;/span&gt;&lt;/div&gt;" style="rounded=0;whiteSpace=wrap;html=1;fillColor=#fff2cc;gradientColor=none;strokeColor=#d6b656;" parent="1" vertex="1">
          <mxGeometry x="303" y="707" width="223" height="83" as="geometry" />
        </mxCell>
        <mxCell id="6ljBKqhG9MOsJNuzWGUm-74" value="" style="endArrow=classic;html=1;rounded=0;exitX=0.5;exitY=1;exitDx=0;exitDy=0;entryX=0.5;entryY=0;entryDx=0;entryDy=0;shape=flexArrow;" parent="1" source="6ljBKqhG9MOsJNuzWGUm-66" target="6ljBKqhG9MOsJNuzWGUm-14" edge="1">
          <mxGeometry width="50" height="50" relative="1" as="geometry">
            <mxPoint x="426" y="40" as="sourcePoint" />
            <mxPoint x="576" y="200" as="targetPoint" />
          </mxGeometry>
        </mxCell>
        <mxCell id="6ljBKqhG9MOsJNuzWGUm-75" value="&lt;font style=&quot;font-size: 20px;&quot;&gt;no&lt;/font&gt;" style="edgeLabel;html=1;align=center;verticalAlign=middle;resizable=0;points=[];" parent="6ljBKqhG9MOsJNuzWGUm-74" vertex="1" connectable="0">
          <mxGeometry x="-0.1707" y="-2" relative="1" as="geometry">
            <mxPoint y="1" as="offset" />
          </mxGeometry>
        </mxCell>
        <mxCell id="6ljBKqhG9MOsJNuzWGUm-78" value="" style="endArrow=classic;html=1;rounded=0;entryX=0.5;entryY=1;entryDx=0;entryDy=0;shape=flexArrow;" parent="1" source="6ljBKqhG9MOsJNuzWGUm-68" target="6ljBKqhG9MOsJNuzWGUm-83" edge="1">
          <mxGeometry width="50" height="50" relative="1" as="geometry">
            <mxPoint x="830" y="440" as="sourcePoint" />
            <mxPoint x="416" y="490" as="targetPoint" />
            <Array as="points" />
          </mxGeometry>
        </mxCell>
        <mxCell id="6ljBKqhG9MOsJNuzWGUm-79" value="&lt;font style=&quot;font-size: 20px;&quot;&gt;yes&lt;/font&gt;" style="edgeLabel;html=1;align=center;verticalAlign=middle;resizable=0;points=[];" parent="6ljBKqhG9MOsJNuzWGUm-78" vertex="1" connectable="0">
          <mxGeometry x="-0.1707" y="-2" relative="1" as="geometry">
            <mxPoint y="1" as="offset" />
          </mxGeometry>
        </mxCell>
        <mxCell id="6ljBKqhG9MOsJNuzWGUm-80" value="&lt;font style=&quot;font-size: 20px;&quot;&gt;Write Back&lt;/font&gt;" style="rounded=0;whiteSpace=wrap;html=1;fillColor=#fff2cc;gradientColor=none;strokeColor=#d6b656;" parent="1" vertex="1">
          <mxGeometry x="625" y="728" width="111" height="44" as="geometry" />
        </mxCell>
        <mxCell id="6ljBKqhG9MOsJNuzWGUm-81" value="" style="endArrow=classic;html=1;rounded=0;exitX=0.5;exitY=0;exitDx=0;exitDy=0;entryX=0.5;entryY=1;entryDx=0;entryDy=0;entryPerimeter=0;shape=flexArrow;" parent="1" source="6ljBKqhG9MOsJNuzWGUm-80" target="6ljBKqhG9MOsJNuzWGUm-8" edge="1">
          <mxGeometry width="50" height="50" relative="1" as="geometry">
            <mxPoint x="679.5" y="726.0000000000002" as="sourcePoint" />
            <mxPoint x="680" y="601" as="targetPoint" />
            <Array as="points" />
          </mxGeometry>
        </mxCell>
        <mxCell id="6ljBKqhG9MOsJNuzWGUm-83" value="&lt;font style=&quot;font-size: 20px;&quot;&gt;Update the Query &amp;amp; answer&lt;/font&gt;" style="rounded=0;whiteSpace=wrap;html=1;fillColor=#fff2cc;gradientColor=none;strokeColor=#d6b656;" parent="1" vertex="1">
          <mxGeometry x="334.5" y="513" width="159.5" height="98" as="geometry" />
        </mxCell>
        <mxCell id="6ljBKqhG9MOsJNuzWGUm-90" value="" style="endArrow=classic;html=1;rounded=0;entryX=0;entryY=0.5;entryDx=0;entryDy=0;shape=flexArrow;exitX=1;exitY=0.5;exitDx=0;exitDy=0;" parent="1" source="6ljBKqhG9MOsJNuzWGUm-68" target="6ljBKqhG9MOsJNuzWGUm-80" edge="1">
          <mxGeometry width="50" height="50" relative="1" as="geometry">
            <mxPoint x="496" y="750" as="sourcePoint" />
            <mxPoint x="826" y="380" as="targetPoint" />
            <Array as="points" />
          </mxGeometry>
        </mxCell>
        <mxCell id="6ljBKqhG9MOsJNuzWGUm-91" value="&lt;font style=&quot;font-size: 20px;&quot;&gt;no&lt;/font&gt;" style="edgeLabel;html=1;align=center;verticalAlign=middle;resizable=0;points=[];" parent="6ljBKqhG9MOsJNuzWGUm-90" vertex="1" connectable="0">
          <mxGeometry x="-0.1707" y="-2" relative="1" as="geometry">
            <mxPoint y="1" as="offset" />
          </mxGeometry>
        </mxCell>
        <mxCell id="6ljBKqhG9MOsJNuzWGUm-96" value="" style="endArrow=classic;html=1;rounded=0;exitX=1;exitY=0.5;exitDx=0;exitDy=0;entryX=0.012;entryY=0.574;entryDx=0;entryDy=0;entryPerimeter=0;shape=flexArrow;" parent="1" source="6ljBKqhG9MOsJNuzWGUm-83" target="6ljBKqhG9MOsJNuzWGUm-8" edge="1">
          <mxGeometry width="50" height="50" relative="1" as="geometry">
            <mxPoint x="466" y="510" as="sourcePoint" />
            <mxPoint x="766" y="430" as="targetPoint" />
            <Array as="points" />
          </mxGeometry>
        </mxCell>
        <mxCell id="6ljBKqhG9MOsJNuzWGUm-111" value="&lt;font style=&quot;font-size: 20px;&quot;&gt;DataBase(Old)&lt;/font&gt;" style="shape=cylinder3;whiteSpace=wrap;html=1;boundedLbl=1;backgroundOutline=1;size=15;strokeColor=#6c8ebf;fillColor=#dae8fc;" parent="1" vertex="1">
          <mxGeometry x="330" y="85" width="161" height="95" as="geometry" />
        </mxCell>
        <mxCell id="6ljBKqhG9MOsJNuzWGUm-119" value="" style="shape=flexArrow;endArrow=classic;startArrow=classic;html=1;rounded=0;entryX=0.5;entryY=1;entryDx=0;entryDy=0;entryPerimeter=0;exitX=0.5;exitY=0;exitDx=0;exitDy=0;" parent="1" source="6ljBKqhG9MOsJNuzWGUm-66" target="6ljBKqhG9MOsJNuzWGUm-111" edge="1">
          <mxGeometry width="100" height="100" relative="1" as="geometry">
            <mxPoint x="586" y="500" as="sourcePoint" />
            <mxPoint x="686" y="400" as="targetPoint" />
          </mxGeometry>
        </mxCell>
      </root>
    </mxGraphModel>
  </diagram>
</mxfile>
